<?xml version="1.0" encoding="UTF-8" standalone="no"?>
<svg width="16px" height="15px" viewBox="0 0 16 15" version="1.1" xmlns="http://www.w3.org/2000/svg" xmlns:xlink="http://www.w3.org/1999/xlink">
    <!-- Generator: Sketch 40.2 (33826) - http://www.bohemiancoding.com/sketch -->
    <title>Shape</title>
    <desc>Created with Sketch.</desc>
    <defs></defs>
    <g id="Page-1" stroke="none" stroke-width="1" fill="none" fill-rule="evenodd">
        <g id="处方审核详情" transform="translate(-1286.000000, -1095.000000)" fill="#61BBE2">
            <path d="M1300.54055,1106.52586 L1296.91924,1106.52586 L1293.88612,1109.55899 L1290.853,1106.52586 L1287.21325,1106.52586 C1286.54319,1106.52586 1286,1105.98267 1286,1105.31262 L1286,1096.21325 C1286,1095.54319 1286.54319,1095 1287.21325,1095 L1300.54055,1095 C1301.21061,1095 1301.7538,1095.54319 1301.7538,1096.21325 L1301.7538,1105.31262 C1301.7538,1105.98267 1301.21061,1106.52586 1300.54055,1106.52586 L1300.54055,1106.52586 Z M1300.55899,1096.8389 C1300.55899,1096.50388 1300.28739,1096.23228 1299.95236,1096.23228 L1287.81987,1096.23228 C1287.48484,1096.23228 1287.21325,1096.50388 1287.21325,1096.8389 L1287.21325,1104.72502 C1287.21325,1105.05986 1287.48504,1105.33165 1287.81987,1105.33165 L1291.25028,1105.33165 L1291.35495,1105.22697 L1293.88612,1107.75814 L1296.41788,1105.22697 L1296.52196,1105.33165 L1299.95236,1105.33165 C1300.11325,1105.33165 1300.26755,1105.26773 1300.38131,1105.15397 C1300.49507,1105.04021 1300.55899,1104.88591 1300.55899,1104.72502 L1300.55899,1096.8389 L1300.55899,1096.8389 Z M1298.11405,1101.46293 C1298.11405,1101.57888 1298.02006,1101.67287 1297.90411,1101.67287 L1297.12918,1101.67287 C1297.0735,1101.67287 1297.0201,1101.65075 1296.98073,1101.61138 C1296.94136,1101.57201 1296.91924,1101.51861 1296.91924,1101.46293 L1296.91924,1100.08197 C1296.91924,1099.96599 1297.01321,1099.87203 1297.12918,1099.87203 L1297.4319,1099.87203 C1297.46401,1099.86667 1297.49256,1099.853 1297.52586,1099.853 C1297.55917,1099.853 1297.58772,1099.86667 1297.61983,1099.87203 L1297.90411,1099.87203 C1298.01949,1099.87203 1298.11405,1099.96599 1298.11405,1100.08197 L1298.11405,1100.36565 C1298.11881,1100.39717 1298.13249,1100.42632 1298.13249,1100.45962 C1298.13249,1100.49292 1298.11881,1100.52147 1298.11405,1100.55359 L1298.11405,1101.46293 L1298.11405,1101.46293 Z M1294.26437,1101.67287 L1293.48943,1101.67287 C1293.37349,1101.67287 1293.27949,1101.57888 1293.27949,1101.46293 L1293.27949,1100.08197 C1293.27949,1099.96599 1293.37346,1099.87203 1293.48943,1099.87203 L1294.26437,1099.87203 C1294.37974,1099.87203 1294.47431,1099.96599 1294.47431,1100.08197 L1294.47431,1101.46293 C1294.47431,1101.57888 1294.38031,1101.67287 1294.26437,1101.67287 L1294.26437,1101.67287 Z M1290.83456,1101.46293 C1290.83456,1101.57888 1290.74057,1101.67287 1290.62462,1101.67287 L1289.84969,1101.67287 C1289.79401,1101.67287 1289.74061,1101.65075 1289.70124,1101.61138 C1289.66187,1101.57201 1289.63975,1101.51861 1289.63975,1101.46293 L1289.63975,1100.08197 C1289.63975,1099.96599 1289.73371,1099.87203 1289.84969,1099.87203 L1290.1524,1099.87203 C1290.18452,1099.86667 1290.21307,1099.853 1290.24637,1099.853 C1290.27968,1099.853 1290.30822,1099.86667 1290.34034,1099.87203 L1290.62462,1099.87203 C1290.74,1099.87203 1290.83456,1099.96599 1290.83456,1100.08197 L1290.83456,1100.36565 C1290.83932,1100.39717 1290.853,1100.42632 1290.853,1100.45962 C1290.853,1100.49292 1290.83932,1100.52147 1290.83456,1100.55359 L1290.83456,1101.46293 L1290.83456,1101.46293 Z" id="Shape"></path>
        </g>
    </g>
</svg>