<?xml version="1.0" encoding="UTF-8" standalone="no"?>
<svg width="15px" height="15px" viewBox="0 0 15 15" version="1.1" xmlns="http://www.w3.org/2000/svg" xmlns:xlink="http://www.w3.org/1999/xlink">
    <!-- Generator: Sketch 40.2 (33826) - http://www.bohemiancoding.com/sketch -->
    <title>Shape</title>
    <desc>Created with Sketch.</desc>
    <defs></defs>
    <g id="Page-1" stroke="none" stroke-width="1" fill="none" fill-rule="evenodd">
        <g id="用药警示信息" transform="translate(-1119.000000, -319.000000)" fill="#515253">
            <g id="Group-21" transform="translate(1119.000000, 319.000000)">
                <path d="M0.621276989,7.90874812 L3.9930632,7.90874812 C4.24716346,8.04783977 4.57159951,8.31232501 4.68743197,8.78451488 L4.68743197,11.47353 C4.68743197,11.9538945 5.0907673,12.3415885 5.58767502,12.3415885 L9.01517399,12.3415885 C9.51123038,12.3415885 9.91366429,11.9538945 9.91366429,11.47353 L9.91366429,8.67181284 C9.99985005,8.49143067 10.2056242,8.1301017 10.549566,7.90877267 L14.1142811,7.90877267 L14.1142811,7.89517282 C14.2914101,7.86244971 14.4174837,7.76791354 14.4174837,7.65383679 C14.4174837,7.59654065 14.3849825,7.54476792 14.3284935,7.50249545 L14.3321743,7.50249545 L7.58707446,0.604521973 C7.41277491,0.436438582 7.12720007,0.436438582 6.95202414,0.604521973 L0.279113015,7.49832221 C0.223350178,7.5411102 0.187318421,7.59425764 0.187318421,7.65381224 C0.187293382,7.79602154 0.379145586,7.90874812 0.62125195,7.90874812 L0.621276989,7.90874812 Z M4.68830835,13.6104745 C4.68830835,14.0880405 5.09269533,14.4784594 5.58857644,14.4784594 L9.01797841,14.4784594 C9.51491118,14.4784594 9.91721989,14.0880405 9.91721989,13.6104745 L9.91721989,13.2386634 L4.68830835,13.2386634 L4.68830835,13.6104745 L4.68830835,13.6104745 Z" id="Shape" transform="translate(7.302401, 7.478459) scale(1, -1) translate(-7.302401, -7.478459) "></path>
            </g>
        </g>
    </g>
</svg>