<?xml version="1.0" encoding="UTF-8" standalone="no"?>
<svg width="15px" height="15px" viewBox="0 0 15 15" version="1.1" xmlns="http://www.w3.org/2000/svg" xmlns:xlink="http://www.w3.org/1999/xlink">
    <!-- Generator: Sketch 40.2 (33826) - http://www.bohemiancoding.com/sketch -->
    <title>Shape</title>
    <desc>Created with Sketch.</desc>
    <defs></defs>
    <g id="Page-1" stroke="none" stroke-width="1" fill="none" fill-rule="evenodd">
        <g id="审方方案设置（弹框）" transform="translate(-752.000000, -193.000000)" fill="#ABABAB">
            <g id="Group-31" transform="translate(512.000000, 76.000000)">
                <path d="M247.499968,117 C243.357843,117 240,120.357843 240,124.500016 C240,128.642125 243.357843,132 247.499968,132 C251.641836,132 254.999679,128.642141 254.999679,124.500016 C254.999679,120.357859 251.641836,117 247.499968,117 L247.499968,117 Z M250.667113,127.661142 C250.667001,127.66127 250.666872,127.661399 250.666744,127.661511 C250.458246,127.870009 250.120203,127.870218 249.911449,127.661848 L247.500947,125.255664 L245.094747,127.666439 C245.094619,127.666551 245.09449,127.666712 245.094378,127.666792 C244.885864,127.875306 244.547853,127.875514 244.339099,127.667161 C244.129975,127.458406 244.129622,127.120091 244.338104,126.911224 L246.744304,124.500465 L244.333513,122.094217 C244.124662,121.885735 244.124325,121.54742 244.332791,121.338553 C244.332919,121.338441 244.333048,121.338312 244.33316,121.338184 C244.541385,121.129959 244.879428,121.129766 245.088182,121.33812 L247.498941,123.744336 L249.904916,121.333513 C249.905044,121.333401 249.905173,121.333272 249.905269,121.33316 C250.113783,121.124646 250.451826,121.124453 250.660837,121.333064 C250.86972,121.541545 250.870009,121.879861 250.661559,122.088728 L248.255327,124.499535 L250.666134,126.905751 C250.874985,127.114232 250.875322,127.45258 250.667113,127.661142 L250.667113,127.661142 Z" id="Shape"></path>
            </g>
        </g>
    </g>
</svg>