<?xml version="1.0" encoding="UTF-8" standalone="no"?>
<svg width="17px" height="15px" viewBox="0 0 17 15" version="1.1" xmlns="http://www.w3.org/2000/svg" xmlns:xlink="http://www.w3.org/1999/xlink">
    <!-- Generator: Sketch 40.2 (33826) - http://www.bohemiancoding.com/sketch -->
    <title>Shape</title>
    <desc>Created with Sketch.</desc>
    <defs></defs>
    <g id="Page-1" stroke="none" stroke-width="1" fill="none" fill-rule="evenodd">
        <g id="用药警示信息" transform="translate(-1033.000000, -317.000000)" fill="#515253">
            <g id="Group-21" transform="translate(1033.000000, 317.000000)">
                <path d="M2.57498553,6.64796053 L5.58709474,6.64796053 C5.81408947,6.77221491 6.10391711,7.00848684 6.20739342,7.43030702 L6.20739342,9.83247807 C6.20739342,10.2616009 6.56770395,10.6079386 7.01160526,10.6079386 L10.0734842,10.6079386 C10.516625,10.6079386 10.8761303,10.2616009 10.8761303,9.83247807 L10.8761303,7.32962719 C10.9531224,7.16848684 11.1369461,6.84570175 11.4441987,6.64798246 L14.6286566,6.64798246 L14.6286566,6.63583333 C14.7868908,6.60660088 14.8995158,6.52214912 14.8995158,6.42024123 C14.8995158,6.36905702 14.8704816,6.32280702 14.8200184,6.28504386 L14.8233066,6.28504386 L8.79772368,0.122894737 C8.64201711,-0.0272587719 8.38690526,-0.0272587719 8.23041579,0.122894737 L2.26932105,6.28131579 C2.21950658,6.31953947 2.18731842,6.36701754 2.18731842,6.4202193 C2.18729605,6.54725877 2.35868289,6.64796053 2.57496316,6.64796053 L2.57498553,6.64796053 Z M6.20817632,11.7414693 C6.20817632,12.1680921 6.56942632,12.516864 7.01241053,12.516864 L10.0759895,12.516864 C10.5199132,12.516864 10.8793066,12.1680921 10.8793066,11.7414693 L10.8793066,11.4093202 L6.20817632,11.4093202 L6.20817632,11.7414693 L6.20817632,11.7414693 Z M16.5076711,10.973136 C16.2484882,10.973136 16.0389855,11.1500877 16.0372408,11.370943 L16.0222987,11.370943 L16.0222987,13.2705921 C16.0222987,13.8032018 15.580075,14.2351974 15.0334803,14.2351974 L1.94853553,14.2351974 C1.40283553,14.2351974 0.958911842,13.8032018 0.958911842,13.2705921 L0.958911842,11.370943 L0.956384211,11.370943 C0.955444737,11.1500877 0.745159211,10.973136 0.486736842,10.973136 C0.230059211,10.973136 0.0212276316,11.1500877 0.0163289474,11.370943 L0.0163289474,13.0533553 C0.0163289474,14.1207237 0.899255263,14.9850439 1.98998421,14.9850439 L15.0036408,14.9850439 C16.0935421,14.9850439 16.9780789,14.1220175 16.9780789,13.0533553 L16.9780789,11.370943 C16.9732026,11.1500877 16.7643711,10.973136 16.5076487,10.973136 L16.5076711,10.973136 Z" id="Shape"></path>
            </g>
        </g>
    </g>
</svg>